<mxfile host="Electron" modified="2023-11-11T16:47:09.040Z" agent="Mozilla/5.0 (Macintosh; Intel Mac OS X 10_15_7) AppleWebKit/537.36 (KHTML, like Gecko) draw.io/22.0.3 Chrome/114.0.5735.289 Electron/25.8.4 Safari/537.36" etag="DbWQx6mwjhY56iwm9QAi" version="22.0.3" type="device">
  <diagram name="Page-1" id="kzLGJ6BDQNdrTrB3kdIa">
    <mxGraphModel dx="1266" dy="688" grid="1" gridSize="10" guides="1" tooltips="1" connect="1" arrows="1" fold="1" page="1" pageScale="1" pageWidth="1100" pageHeight="1700" math="0" shadow="0">
      <root>
        <mxCell id="0" />
        <mxCell id="1" parent="0" />
        <mxCell id="TRLF765llgEUbpDuQz6k-3" value="" style="edgeStyle=orthogonalEdgeStyle;rounded=0;orthogonalLoop=1;jettySize=auto;html=1;" parent="1" source="TRLF765llgEUbpDuQz6k-1" target="TRLF765llgEUbpDuQz6k-2" edge="1">
          <mxGeometry relative="1" as="geometry" />
        </mxCell>
        <mxCell id="TRLF765llgEUbpDuQz6k-1" value="开始" style="rounded=1;whiteSpace=wrap;html=1;" parent="1" vertex="1">
          <mxGeometry x="380" y="560" width="120" height="60" as="geometry" />
        </mxCell>
        <mxCell id="TRLF765llgEUbpDuQz6k-5" value="" style="edgeStyle=orthogonalEdgeStyle;rounded=0;orthogonalLoop=1;jettySize=auto;html=1;" parent="1" source="TRLF765llgEUbpDuQz6k-2" target="TRLF765llgEUbpDuQz6k-4" edge="1">
          <mxGeometry relative="1" as="geometry" />
        </mxCell>
        <mxCell id="TRLF765llgEUbpDuQz6k-2" value="定位到根结点" style="whiteSpace=wrap;html=1;rounded=1;" parent="1" vertex="1">
          <mxGeometry x="380" y="650" width="120" height="60" as="geometry" />
        </mxCell>
        <mxCell id="TRLF765llgEUbpDuQz6k-7" value="" style="edgeStyle=orthogonalEdgeStyle;rounded=0;orthogonalLoop=1;jettySize=auto;html=1;" parent="1" source="TRLF765llgEUbpDuQz6k-4" target="TRLF765llgEUbpDuQz6k-6" edge="1">
          <mxGeometry relative="1" as="geometry" />
        </mxCell>
        <mxCell id="TRLF765llgEUbpDuQz6k-15" value="" style="edgeStyle=orthogonalEdgeStyle;rounded=0;orthogonalLoop=1;jettySize=auto;html=1;" parent="1" source="TRLF765llgEUbpDuQz6k-4" target="TRLF765llgEUbpDuQz6k-14" edge="1">
          <mxGeometry relative="1" as="geometry" />
        </mxCell>
        <mxCell id="TRLF765llgEUbpDuQz6k-4" value="是叶子结点吗？" style="rhombus;whiteSpace=wrap;html=1;rounded=1;" parent="1" vertex="1">
          <mxGeometry x="377.5" y="740" width="125" height="70" as="geometry" />
        </mxCell>
        <mxCell id="TRLF765llgEUbpDuQz6k-11" value="" style="edgeStyle=orthogonalEdgeStyle;rounded=0;orthogonalLoop=1;jettySize=auto;html=1;" parent="1" source="TRLF765llgEUbpDuQz6k-6" target="TRLF765llgEUbpDuQz6k-10" edge="1">
          <mxGeometry relative="1" as="geometry" />
        </mxCell>
        <mxCell id="TRLF765llgEUbpDuQz6k-18" value="" style="edgeStyle=orthogonalEdgeStyle;rounded=0;orthogonalLoop=1;jettySize=auto;html=1;" parent="1" source="TRLF765llgEUbpDuQz6k-6" target="TRLF765llgEUbpDuQz6k-17" edge="1">
          <mxGeometry relative="1" as="geometry" />
        </mxCell>
        <mxCell id="TRLF765llgEUbpDuQz6k-6" value="是NYT吗" style="rhombus;whiteSpace=wrap;html=1;rounded=1;" parent="1" vertex="1">
          <mxGeometry x="377.5" y="870" width="125" height="70" as="geometry" />
        </mxCell>
        <mxCell id="TRLF765llgEUbpDuQz6k-13" value="" style="edgeStyle=orthogonalEdgeStyle;rounded=0;orthogonalLoop=1;jettySize=auto;html=1;" parent="1" source="TRLF765llgEUbpDuQz6k-10" target="TRLF765llgEUbpDuQz6k-12" edge="1">
          <mxGeometry relative="1" as="geometry" />
        </mxCell>
        <mxCell id="TRLF765llgEUbpDuQz6k-10" value="访问（解码）这个结点的值" style="whiteSpace=wrap;html=1;rounded=1;" parent="1" vertex="1">
          <mxGeometry x="380" y="1010" width="120" height="60" as="geometry" />
        </mxCell>
        <mxCell id="TRLF765llgEUbpDuQz6k-33" value="" style="edgeStyle=orthogonalEdgeStyle;rounded=0;orthogonalLoop=1;jettySize=auto;html=1;" parent="1" source="TRLF765llgEUbpDuQz6k-12" target="TRLF765llgEUbpDuQz6k-32" edge="1">
          <mxGeometry relative="1" as="geometry" />
        </mxCell>
        <mxCell id="TRLF765llgEUbpDuQz6k-12" value="更新树" style="whiteSpace=wrap;html=1;rounded=1;" parent="1" vertex="1">
          <mxGeometry x="380" y="1100" width="120" height="60" as="geometry" />
        </mxCell>
        <mxCell id="TRLF765llgEUbpDuQz6k-16" style="edgeStyle=orthogonalEdgeStyle;rounded=0;orthogonalLoop=1;jettySize=auto;html=1;exitX=0.5;exitY=0;exitDx=0;exitDy=0;entryX=1;entryY=0.5;entryDx=0;entryDy=0;" parent="1" source="TRLF765llgEUbpDuQz6k-14" target="TRLF765llgEUbpDuQz6k-2" edge="1">
          <mxGeometry relative="1" as="geometry" />
        </mxCell>
        <mxCell id="TRLF765llgEUbpDuQz6k-14" value="多读1bit，根据这个bit决定走左支右支" style="whiteSpace=wrap;html=1;rounded=1;" parent="1" vertex="1">
          <mxGeometry x="585" y="745" width="120" height="60" as="geometry" />
        </mxCell>
        <mxCell id="TRLF765llgEUbpDuQz6k-20" value="" style="edgeStyle=orthogonalEdgeStyle;rounded=0;orthogonalLoop=1;jettySize=auto;html=1;" parent="1" source="TRLF765llgEUbpDuQz6k-17" target="TRLF765llgEUbpDuQz6k-19" edge="1">
          <mxGeometry relative="1" as="geometry" />
        </mxCell>
        <mxCell id="TRLF765llgEUbpDuQz6k-17" value="读b个bits" style="whiteSpace=wrap;html=1;rounded=1;" parent="1" vertex="1">
          <mxGeometry x="585" y="875" width="120" height="60" as="geometry" />
        </mxCell>
        <mxCell id="TRLF765llgEUbpDuQz6k-22" value="" style="edgeStyle=orthogonalEdgeStyle;rounded=0;orthogonalLoop=1;jettySize=auto;html=1;" parent="1" source="TRLF765llgEUbpDuQz6k-19" target="TRLF765llgEUbpDuQz6k-21" edge="1">
          <mxGeometry relative="1" as="geometry" />
        </mxCell>
        <mxCell id="TRLF765llgEUbpDuQz6k-24" value="" style="edgeStyle=orthogonalEdgeStyle;rounded=0;orthogonalLoop=1;jettySize=auto;html=1;" parent="1" source="TRLF765llgEUbpDuQz6k-19" target="TRLF765llgEUbpDuQz6k-23" edge="1">
          <mxGeometry relative="1" as="geometry" />
        </mxCell>
        <mxCell id="TRLF765llgEUbpDuQz6k-19" value="这些bits代表的数&lt;br&gt;p小于r吗" style="rhombus;whiteSpace=wrap;html=1;rounded=1;" parent="1" vertex="1">
          <mxGeometry x="556.25" y="970" width="177.5" height="72.5" as="geometry" />
        </mxCell>
        <mxCell id="TRLF765llgEUbpDuQz6k-29" style="edgeStyle=orthogonalEdgeStyle;rounded=0;orthogonalLoop=1;jettySize=auto;html=1;exitX=0.5;exitY=1;exitDx=0;exitDy=0;entryX=1;entryY=0.5;entryDx=0;entryDy=0;" parent="1" source="TRLF765llgEUbpDuQz6k-21" target="TRLF765llgEUbpDuQz6k-26" edge="1">
          <mxGeometry relative="1" as="geometry" />
        </mxCell>
        <mxCell id="TRLF765llgEUbpDuQz6k-21" value="p+=r" style="whiteSpace=wrap;html=1;rounded=1;" parent="1" vertex="1">
          <mxGeometry x="740" y="1060" width="62.5" height="26.25" as="geometry" />
        </mxCell>
        <mxCell id="TRLF765llgEUbpDuQz6k-27" value="" style="edgeStyle=orthogonalEdgeStyle;rounded=0;orthogonalLoop=1;jettySize=auto;html=1;" parent="1" source="TRLF765llgEUbpDuQz6k-23" target="TRLF765llgEUbpDuQz6k-26" edge="1">
          <mxGeometry relative="1" as="geometry" />
        </mxCell>
        <mxCell id="TRLF765llgEUbpDuQz6k-23" value="多读1bit" style="whiteSpace=wrap;html=1;rounded=1;" parent="1" vertex="1">
          <mxGeometry x="585" y="1090" width="120" height="60" as="geometry" />
        </mxCell>
        <mxCell id="TRLF765llgEUbpDuQz6k-28" style="edgeStyle=orthogonalEdgeStyle;rounded=0;orthogonalLoop=1;jettySize=auto;html=1;exitX=0;exitY=0.5;exitDx=0;exitDy=0;entryX=1;entryY=0.5;entryDx=0;entryDy=0;" parent="1" source="TRLF765llgEUbpDuQz6k-26" target="TRLF765llgEUbpDuQz6k-12" edge="1">
          <mxGeometry relative="1" as="geometry" />
        </mxCell>
        <mxCell id="TRLF765llgEUbpDuQz6k-26" value="解码序号p+1的符号" style="whiteSpace=wrap;html=1;rounded=1;" parent="1" vertex="1">
          <mxGeometry x="585" y="1200" width="120" height="60" as="geometry" />
        </mxCell>
        <mxCell id="TRLF765llgEUbpDuQz6k-35" value="" style="edgeStyle=orthogonalEdgeStyle;rounded=0;orthogonalLoop=1;jettySize=auto;html=1;" parent="1" source="TRLF765llgEUbpDuQz6k-32" target="TRLF765llgEUbpDuQz6k-34" edge="1">
          <mxGeometry relative="1" as="geometry" />
        </mxCell>
        <mxCell id="TRLF765llgEUbpDuQz6k-36" style="edgeStyle=orthogonalEdgeStyle;rounded=0;orthogonalLoop=1;jettySize=auto;html=1;exitX=0;exitY=0.5;exitDx=0;exitDy=0;entryX=0;entryY=0.5;entryDx=0;entryDy=0;" parent="1" source="TRLF765llgEUbpDuQz6k-32" target="TRLF765llgEUbpDuQz6k-2" edge="1">
          <mxGeometry relative="1" as="geometry" />
        </mxCell>
        <mxCell id="TRLF765llgEUbpDuQz6k-32" value="是最后一个bit吗" style="rhombus;whiteSpace=wrap;html=1;rounded=1;" parent="1" vertex="1">
          <mxGeometry x="385" y="1190" width="110" height="80" as="geometry" />
        </mxCell>
        <mxCell id="TRLF765llgEUbpDuQz6k-34" value="停止" style="whiteSpace=wrap;html=1;rounded=1;" parent="1" vertex="1">
          <mxGeometry x="380" y="1300" width="120" height="60" as="geometry" />
        </mxCell>
        <mxCell id="TRLF765llgEUbpDuQz6k-37" value="否" style="text;html=1;strokeColor=none;fillColor=none;align=center;verticalAlign=middle;whiteSpace=wrap;rounded=0;" parent="1" vertex="1">
          <mxGeometry x="350" y="1230" width="60" height="30" as="geometry" />
        </mxCell>
        <mxCell id="TRLF765llgEUbpDuQz6k-38" value="是" style="text;html=1;strokeColor=none;fillColor=none;align=center;verticalAlign=middle;whiteSpace=wrap;rounded=0;" parent="1" vertex="1">
          <mxGeometry x="420" y="1260" width="60" height="30" as="geometry" />
        </mxCell>
        <mxCell id="TRLF765llgEUbpDuQz6k-39" value="是" style="text;html=1;strokeColor=none;fillColor=none;align=center;verticalAlign=middle;whiteSpace=wrap;rounded=0;" parent="1" vertex="1">
          <mxGeometry x="600" y="1040" width="60" height="30" as="geometry" />
        </mxCell>
        <mxCell id="TRLF765llgEUbpDuQz6k-40" value="否" style="text;html=1;strokeColor=none;fillColor=none;align=center;verticalAlign=middle;whiteSpace=wrap;rounded=0;" parent="1" vertex="1">
          <mxGeometry x="720" y="1010" width="60" height="30" as="geometry" />
        </mxCell>
        <mxCell id="TRLF765llgEUbpDuQz6k-41" value="是" style="text;html=1;strokeColor=none;fillColor=none;align=center;verticalAlign=middle;whiteSpace=wrap;rounded=0;" parent="1" vertex="1">
          <mxGeometry x="480" y="870" width="60" height="30" as="geometry" />
        </mxCell>
        <mxCell id="TRLF765llgEUbpDuQz6k-42" value="否" style="text;html=1;strokeColor=none;fillColor=none;align=center;verticalAlign=middle;whiteSpace=wrap;rounded=0;" parent="1" vertex="1">
          <mxGeometry x="420" y="935" width="60" height="30" as="geometry" />
        </mxCell>
        <mxCell id="TRLF765llgEUbpDuQz6k-43" value="否" style="text;html=1;strokeColor=none;fillColor=none;align=center;verticalAlign=middle;whiteSpace=wrap;rounded=0;" parent="1" vertex="1">
          <mxGeometry x="480" y="745" width="60" height="30" as="geometry" />
        </mxCell>
        <mxCell id="TRLF765llgEUbpDuQz6k-44" value="是" style="text;html=1;strokeColor=none;fillColor=none;align=center;verticalAlign=middle;whiteSpace=wrap;rounded=0;" parent="1" vertex="1">
          <mxGeometry x="420" y="805" width="60" height="30" as="geometry" />
        </mxCell>
      </root>
    </mxGraphModel>
  </diagram>
</mxfile>
